<?xml version="1.0" encoding="utf-8"?>
<!-- Generator: Adobe Illustrator 18.1.1, SVG Export Plug-In . SVG Version: 6.00 Build 0)  -->
<svg version="1.1" id="Layer_1" xmlns="http://www.w3.org/2000/svg" xmlns:xlink="http://www.w3.org/1999/xlink" x="0px" y="0px"
	 viewBox="0 0 46 50.8" enable-background="new 0 0 46 50.8" xml:space="preserve">
<g>
	<path d="M33.5,40.7c-0.4-0.2-0.9-0.1-1.1,0.3c-3,5.1-8.4,8.2-14.3,8.2C9,49.2,1.6,41.8,1.6,32.7c0-6,3.3-11.6,8.6-14.5
		c0.4-0.2,0.5-0.7,0.3-1.1c-0.2-0.4-0.7-0.5-1.1-0.3C3.6,20,0,26.1,0,32.7c0,10,8.1,18.1,18.1,18.1c6.4,0,12.4-3.5,15.7-9
		C34,41.4,33.9,40.9,33.5,40.7z"/>
	<path d="M45.8,41c-0.3-0.3-0.8-0.3-1.1,0l-2.4,2.2l-8.4-10.4c0,0,0,0,0,0c0,0-0.1-0.1-0.1-0.1c0,0-0.1-0.1-0.1-0.1c0,0-0.1,0-0.1,0
		c-0.1,0-0.1,0-0.2,0c0,0,0,0,0,0H18.9V18.3h14.2c0.4,0,0.8-0.4,0.8-0.8c0-0.4-0.4-0.8-0.8-0.8H18.9v-4.8c0-0.4-0.4-0.8-0.8-0.8
		c-0.4,0-0.8,0.4-0.8,0.8v21.3c0,0.4,0.4,0.8,0.8,0.8h14.7l8.7,10.8c0,0,0,0,0,0c0,0,0,0,0,0c0.1,0.1,0.1,0.1,0.2,0.1
		c0,0,0.1,0,0.1,0.1c0.1,0.1,0.2,0.1,0.3,0.1c0.1,0,0.2,0,0.3-0.1c0,0,0.1,0,0.1,0c0.1,0,0.1,0,0.1-0.1c0,0,0,0,0,0c0,0,0,0,0,0
		l3.1-2.8C46.1,41.8,46.1,41.3,45.8,41z"/>
	<path d="M18.1,9.1c2.5,0,4.6-2,4.6-4.6c0-2.5-2-4.6-4.6-4.6c-2.5,0-4.6,2-4.6,4.6C13.6,7.1,15.6,9.1,18.1,9.1z M18.1,1.6
		c1.6,0,3,1.3,3,3c0,1.6-1.3,3-3,3s-3-1.3-3-3C15.2,2.9,16.5,1.6,18.1,1.6z"/>
</g>
</svg>
