<?xml version="1.0" encoding="utf-8"?>
<!-- Generator: Adobe Illustrator 18.1.1, SVG Export Plug-In . SVG Version: 6.00 Build 0)  -->
<svg version="1.1" id="Layer_1" xmlns="http://www.w3.org/2000/svg" xmlns:xlink="http://www.w3.org/1999/xlink" x="0px" y="0px"
	 viewBox="0 0 25 21" enable-background="new 0 0 25 21" xml:space="preserve">
<path d="M23,9.8V4.5C23,2,21,0,18.5,0h-12C4,0,2,2,2,4.5v5.3c-1.2,0.8-2,2.2-2,3.7c0,2.3,1.8,4.2,4,4.4V21h2v-3h13v3h2v-3.1
	c2.2-0.3,4-2.1,4-4.4C25,11.9,24.2,10.6,23,9.8z M3,4.5C3,2.6,4.6,1,6.5,1h12C20.4,1,22,2.6,22,4.5v4.8c-0.3-0.1-0.7-0.2-1.1-0.2
	C21,8.9,21,8.7,21,8.5C21,7.1,19.9,6,18.5,6h-3C14.1,6,13,7.1,13,8.5c0,0.2,0,0.3,0.1,0.5h-1.1C12,8.8,12,8.7,12,8.5
	C12,7.1,10.9,6,9.5,6h-3C5.1,6,4,7.1,4,8.5C4,8.7,4,8.9,4.1,9C3.7,9.1,3.3,9.2,3,9.3V4.5z M20,8.5c0,0.8-0.7,1.5-1.5,1.5h-3
	C14.7,10,14,9.3,14,8.5S14.7,7,15.5,7h3C19.3,7,20,7.7,20,8.5z M11,8.5c0,0.2,0,0.3-0.1,0.5c-0.2,0.6-0.8,1-1.4,1h-3
	c-0.7,0-1.2-0.4-1.4-1C5,8.8,5,8.7,5,8.5C5,7.7,5.7,7,6.5,7h3C10.3,7,11,7.7,11,8.5z M20.5,17H19H6H4.5C2.6,17,1,15.4,1,13.5
	S2.6,10,4.5,10h0c0.5,0.6,1.2,1,2,1h3c0.8,0,1.5-0.4,2-1h2c0.5,0.6,1.2,1,2,1h3c0.8,0,1.5-0.4,2-1h0c1.9,0,3.5,1.6,3.5,3.5
	S22.4,17,20.5,17z"/>
</svg>
