<?xml version="1.0" encoding="utf-8"?>
<!-- Generator: Adobe Illustrator 18.1.1, SVG Export Plug-In . SVG Version: 6.00 Build 0)  -->
<svg version="1.1" id="Layer_1" xmlns="http://www.w3.org/2000/svg" xmlns:xlink="http://www.w3.org/1999/xlink" x="0px" y="0px"
	 viewBox="0 0 25 25" enable-background="new 0 0 25 25" xml:space="preserve">
<g>
	<path d="M21,15h-5v5h5V15z M20,19h-3v-3h3V19z"/>
	<path d="M21,8h-5v5h5V8z M20,12h-3V9h3V12z"/>
	<path d="M15,15h-5v5h5V15z M14,19h-3v-3h3V19z"/>
	<path d="M9,15H4v5h5V15z M8,19H5v-3h3V19z"/>
	<path d="M15,8h-5v5h5V8z M14,12h-3V9h3V12z"/>
	<path d="M9,8H4v5h5V8z M8,12H5V9h3V12z"/>
	<path d="M23.5,0h-22C0.7,0,0,0.7,0,1.5v22C0,24.3,0.7,25,1.5,25h22c0.8,0,1.5-0.7,1.5-1.5v-22C25,0.7,24.3,0,23.5,0z M24,23.5
		c0,0.3-0.2,0.5-0.5,0.5h-22C1.2,24,1,23.8,1,23.5v-18h23V23.5z M24,4.5H1v-3C1,1.2,1.2,1,1.5,1h22C23.8,1,24,1.2,24,1.5V4.5z"/>
</g>
</svg>
