<?xml version="1.0" encoding="utf-8"?>
<!-- Generator: Adobe Illustrator 18.1.1, SVG Export Plug-In . SVG Version: 6.00 Build 0)  -->
<svg version="1.1" id="Layer_1" xmlns="http://www.w3.org/2000/svg" xmlns:xlink="http://www.w3.org/1999/xlink" x="0px" y="0px"
	 viewBox="0 0 24 22" enable-background="new 0 0 24 22" xml:space="preserve">
<path fill-rule="evenodd" clip-rule="evenodd" d="M23.9,18.2c0-1.6-1.9-2.2-3.9-2.9l-0.2-0.1c-0.5-0.2-1-0.3-1.5-0.5
	c-0.8-0.3-1.4-0.5-1.9-0.6c0,0-0.1,0-0.1,0c0,0,0-0.1-0.1-0.2c0,0,0,0,0,0c0,0,0,0,0,0c0.6-0.8,1.3-2.8,1.6-5.9
	c0.2-2.6-0.4-4.9-1.7-6.3C15.3,0.6,14,0,12.5,0c0,0-0.1,0-0.1,0c0,0-0.2,0-0.3,0c-0.2,0-0.6,0-0.6,0C10,0,8.7,0.6,7.7,1.7
	C6.4,3.1,5.8,5.4,6,8c0.3,3.1,1,5.2,1.6,5.9c0,0,0,0,0,0.1c0,0,0,0,0,0c0,0.1-0.1,0.1-0.1,0.1c0,0-0.1,0-0.1,0
	c-0.5,0.1-1.1,0.3-1.9,0.6c-0.5,0.2-0.9,0.3-1.5,0.5L4,15.4c-2,0.7-3.9,1.3-3.9,2.9c0,0.4,0,1.1-0.1,1.7c0,0.2,0,0.3,0.1,0.5
	c0.5,1.5,2,1.6,2.6,1.6h18.7c0,0,0,0,0.1,0c0.5,0,2-0.1,2.5-1.6c0.1-0.2,0.1-0.3,0.1-0.5C24,19.3,23.9,18.6,23.9,18.2z M21.4,20.7
	H2.6c-0.7,0-1.1-0.2-1.3-0.7c0-0.6,0.1-1.4,0.1-1.8c0-0.7,1.9-1.2,3.2-1.7c1.3-0.4,2.6-0.9,3.2-1.1c0.6-0.1,0.9-0.4,1.1-1
	c0.1-0.2,0.2-0.3,0.3-0.3c0-0.4-0.2-0.7-0.5-1c-0.3-0.4-1.1-2-1.4-5.3C7,4.6,8.3,1.4,11.6,1.3l0,0c0,0,0,0,0,0c0,0,0,0,0,0
	c0,0,0,0,0,0c0.1,0,0.6,0,0.7,0c0,0,0,0,0,0c0,0,0,0,0,0c0,0,0,0,0,0l0,0c3.3,0,4.5,3.3,4.3,6.5c-0.3,3.2-1.1,4.9-1.4,5.3
	c-0.2,0.3-0.4,0.6-0.5,1c0.1,0.1,0.2,0.2,0.3,0.4c0.2,0.5,0.5,0.8,1.1,1c0.6,0.1,1.9,0.6,3.2,1.1c1.3,0.4,3.2,1,3.2,1.7
	c0,0.4,0,1.2,0.1,1.8C22.5,20.5,22.1,20.7,21.4,20.7z"/>
</svg>
