<?xml version="1.0" encoding="utf-8"?>
<!-- Generator: Adobe Illustrator 18.1.1, SVG Export Plug-In . SVG Version: 6.00 Build 0)  -->
<svg version="1.1" id="Layer_1" xmlns="http://www.w3.org/2000/svg" xmlns:xlink="http://www.w3.org/1999/xlink" x="0px" y="0px"
	 viewBox="0 0 18 18" enable-background="new 0 0 18 18" xml:space="preserve">
<path fill-rule="evenodd" clip-rule="evenodd" d="M9,0C4,0,0,4,0,9c0,5,4,9,9,9c5,0,9-4,9-9C18,4,14,0,9,0z M9.9,13.4H8.2v-1.7h1.8
	V13.4z M11.6,8.4c-0.1,0.2-0.4,0.5-0.9,0.8l-0.4,0.3c-0.2,0.2-0.4,0.4-0.4,0.6c0,0.1-0.1,0.4-0.1,0.7H8.2c0-0.7,0.1-1.1,0.2-1.4
	S8.8,9,9.2,8.6l0.4-0.3c0.1-0.1,0.3-0.2,0.3-0.3c0.2-0.2,0.2-0.5,0.2-0.7c0-0.3-0.1-0.6-0.3-0.8S9.4,6.1,9,6.1c-0.5,0-0.8,0.2-1,0.5
	C7.8,6.8,7.7,7.1,7.7,7.5H6c0-1.1,0.4-1.9,1.2-2.4c0.5-0.3,1-0.4,1.7-0.4c0.9,0,1.6,0.2,2.2,0.6c0.6,0.4,0.9,1,0.9,1.9
	C12,7.7,11.8,8.1,11.6,8.4z"/>
</svg>
