<?xml version="1.0" encoding="utf-8"?>
<!-- Generator: Adobe Illustrator 18.1.1, SVG Export Plug-In . SVG Version: 6.00 Build 0)  -->
<svg version="1.1" id="Layer_1" xmlns="http://www.w3.org/2000/svg" xmlns:xlink="http://www.w3.org/1999/xlink" x="0px" y="0px"
	 viewBox="0 0 19 23" enable-background="new 0 0 19 23" xml:space="preserve">
<g>
	<path d="M17.5,0h-16C0.7,0,0,0.7,0,1.5v20C0,22.3,0.7,23,1.5,23H4h11h2.5c0.8,0,1.5-0.7,1.5-1.5v-20C19,0.7,18.3,0,17.5,0z M5,22
		v-5h9v5H5z M18,21.5c0,0.3-0.2,0.5-0.5,0.5H15v-6H4v6H1.5C1.2,22,1,21.8,1,21.5v-20C1,1.2,1.2,1,1.5,1h16C17.8,1,18,1.2,18,1.5
		V21.5z"/>
	<path d="M10,15h5v-5h-5V15z M11,11h3v3h-3V11z"/>
	<path d="M4,15h5v-5H4V15z M5,11h3v3H5V11z"/>
	<path d="M10,9h5V4h-5V9z M11,5h3v3h-3V5z"/>
	<path d="M4,9h5V4H4V9z M5,5h3v3H5V5z"/>
</g>
</svg>
