<?xml version="1.0" encoding="utf-8"?>
<!-- Generator: Adobe Illustrator 18.1.1, SVG Export Plug-In . SVG Version: 6.00 Build 0)  -->
<svg version="1.1" id="Layer_1" xmlns="http://www.w3.org/2000/svg" xmlns:xlink="http://www.w3.org/1999/xlink" x="0px" y="0px"
	 viewBox="0 0 34 34" enable-background="new 0 0 34 34" xml:space="preserve">
<path fill-rule="evenodd" clip-rule="evenodd" d="M17,34C7.6,34,0,26.4,0,17C0,7.6,7.6,0,17,0c9.4,0,17,7.6,17,17
	C34,26.4,26.4,34,17,34z M10.6,16.7c-0.1,0.4,0,0.7,0.5,0.7c0.8,0,2.9-3.3,3.9-3.3c1,0,0.1,1.8,0.1,1.8s-2.1,6-3.4,9.4
	c-1.3,3.6,0.4,4.3,1,4.5c3.1,0.6,6.9-1.7,9.3-5.6c0,0,0-0.1,0.1-0.1c0.1-0.4,0-0.7-0.5-0.7c-0.8,0-2.9,3.3-3.9,3.3
	c-1,0-0.1-1.8-0.1-1.8s2.3-5.9,3.4-9.4c1.1-3.4-1.9-3.9-1.9-3.9l0,0C16.3,11.2,12.9,13.2,10.6,16.7z M20.9,4.3
	c-1.6,0-3.1,1.3-3.4,2.9c-0.3,1.6,0.8,2.9,2.4,2.9c1.6,0,3.1-1.3,3.4-2.9C23.6,5.5,22.5,4.3,20.9,4.3z"/>
</svg>
