<?xml version="1.0" encoding="utf-8"?>
<!-- Generator: Adobe Illustrator 18.1.1, SVG Export Plug-In . SVG Version: 6.00 Build 0)  -->
<svg version="1.1" id="Layer_1" xmlns="http://www.w3.org/2000/svg" xmlns:xlink="http://www.w3.org/1999/xlink" x="0px" y="0px"
	 viewBox="0 0 15 20" enable-background="new 0 0 15 20" xml:space="preserve">
<g>
	<g>
		<path fill-rule="evenodd" clip-rule="evenodd" d="M7.5,0C3.4,0,0,3.4,0,7.5C0,11.6,7.5,20,7.5,20S15,11.6,15,7.5
			C15,3.4,11.6,0,7.5,0z M1.2,7.6c0-3.5,2.8-6.3,6.2-6.3c3.5,0,6.2,2.8,6.2,6.3c0,3.5-6.2,10.5-6.2,10.5S1.2,11.1,1.2,7.6z M7.5,3.8
			c-1.7,0-3.1,1.4-3.1,3.1c0,1.7,1.4,3.1,3.1,3.1c1.7,0,3.1-1.4,3.1-3.1C10.6,5.1,9.2,3.8,7.5,3.8z M7.5,8.8c-1,0-1.9-0.8-1.9-1.9
			c0-1,0.8-1.9,1.9-1.9c1,0,1.9,0.8,1.9,1.9C9.4,7.9,8.5,8.8,7.5,8.8z"/>
	</g>
</g>
</svg>
