<?xml version="1.0" encoding="utf-8"?>
<!-- Generator: Adobe Illustrator 18.1.1, SVG Export Plug-In . SVG Version: 6.00 Build 0)  -->
<svg version="1.1" id="Layer_1" xmlns="http://www.w3.org/2000/svg" xmlns:xlink="http://www.w3.org/1999/xlink" x="0px" y="0px"
	 viewBox="0 0 21 14" enable-background="new 0 0 21 14" xml:space="preserve">
<g>
	<g>
		<path d="M20.4,0C20.4,0,20.4,0,20.4,0C20.4,0,20.4,0,20.4,0L0.7,0c0,0,0,0-0.1,0c0,0-0.1,0-0.1,0c0,0-0.1,0-0.1,0
			c0,0-0.1,0-0.1,0.1c0,0-0.1,0.1-0.1,0.1c0,0,0,0,0,0c0,0,0,0,0,0.1c0,0,0,0.1-0.1,0.1c0,0,0,0.1,0,0.1c0,0,0,0,0,0.1v12.6
			C0,13.7,0.3,14,0.7,14h19.7c0.4,0,0.7-0.3,0.7-0.7V0.7C21,0.3,20.7,0.1,20.4,0z M18.2,1.4l-7.7,5.7L2.7,1.4H18.2z M1.3,12.6V2
			l8.8,6.5c0.1,0.1,0.2,0.1,0.4,0.1s0.3,0,0.4-0.1L19.7,2v10.6H1.3z"/>
	</g>
</g>
</svg>
