<?xml version="1.0" encoding="utf-8"?>
<!-- Generator: Adobe Illustrator 18.1.1, SVG Export Plug-In . SVG Version: 6.00 Build 0)  -->
<svg version="1.1" id="Layer_1" xmlns="http://www.w3.org/2000/svg" xmlns:xlink="http://www.w3.org/1999/xlink" x="0px" y="0px"
	 viewBox="0 0 20 20" enable-background="new 0 0 20 20" xml:space="preserve">
<path fill-rule="evenodd" clip-rule="evenodd" d="M10,20C4.5,20,0,15.5,0,10C0,4.5,4.5,0,10,0c5.5,0,10,4.5,10,10
	C20,15.5,15.5,20,10,20z M10,17.5c1.4,0,2.7-0.4,3.8-1.1L3.6,6.2C2.9,7.3,2.5,8.6,2.5,10C2.5,14.1,5.9,17.5,10,17.5z M10,2.5
	c-1.4,0-2.7,0.4-3.8,1.1l10.2,10.2c0.7-1.1,1.1-2.4,1.1-3.8C17.5,5.9,14.1,2.5,10,2.5z"/>
</svg>
