<?xml version="1.0" encoding="utf-8"?>
<!-- Generator: Adobe Illustrator 18.1.1, SVG Export Plug-In . SVG Version: 6.00 Build 0)  -->
<svg version="1.1" id="Layer_1" xmlns="http://www.w3.org/2000/svg" xmlns:xlink="http://www.w3.org/1999/xlink" x="0px" y="0px"
	 viewBox="0 0 18 20" enable-background="new 0 0 18 20" xml:space="preserve">
<path fill-rule="evenodd" clip-rule="evenodd" d="M17.6,12L17.6,12c0-0.2,0-0.4-0.1-0.5c0.3-0.4,0.5-1,0.5-1.6
	c0-1.5-1.7-2.5-2.6-2.5c-0.4,0-0.8,0.1-1,0.2c-0.1,0-0.2,0.1-0.4,0.1c-0.2,0-0.8-0.1-1.1-0.2c-0.1,0-0.2,0-0.3-0.1
	c0-0.3,0-0.3,0.3-0.7c0.2-0.3,0.6-0.8,0.9-1.6c0.7-1.7,0.6-3.3,0.2-4C13.5,0.4,12.9,0,12.4,0c-0.3,0-0.8,0.1-1.3,0.8
	C11.1,0.8,11,0.9,11,1c-0.5,1.2-1.3,2.2-1.9,2.8C9,3.9,8.9,4,8.8,4.2c-0.3,0.4-1.5,1.5-2.2,2C6.1,6.6,5.9,6.8,5.8,6.9
	c-0.4,0.4-0.7,1-1.1,2C4.6,9.2,4.4,9.3,4.2,9.4c-0.1,0-0.1,0.1-0.1,0.1C4,9.5,3.6,9.7,3.4,9.7c-0.1,0-0.3,0.1-0.3,0.1
	c-1.4,0.5-2,0.8-2.3,1.3C0.4,11.7,0,12.9,0,13.8c0,0.8,0.2,1.9,0.4,2.5c0.2,0.4,1.1,2.2,2,2.6c0.2,0.1,0.7,0.3,2,0.3
	c0,0,0.1,0,0.1,0c0.2,0,0.4,0,0.7-0.1c0.2,0,0.4-0.1,0.6-0.1c0.2,0,0.6,0,0.8,0.1c0.1,0,0.2,0,0.2,0c0.6,0.1,0.9,0.2,1.3,0.3
	c0.4,0.1,0.8,0.2,1.4,0.4c0.8,0.1,1.8,0.2,2.7,0.2c0.7,0,1.8,0,2.4-0.3c1.2-0.4,1.7-1.8,1.8-2.7c1-0.9,1.1-2.1,0.9-2.9
	C17.6,13.3,17.6,12.4,17.6,12z M16.1,11.2c-0.2,0.1-0.8,0.1-0.8,0.2C15.3,11.5,16,11.3,16.1,11.2c0.1,0,0.4,0.4,0.4,0.7
	c0,0.3,0.1,1.2-0.3,1.7c-0.4,0.5-0.7,0.4-0.7,0.5s0.5-0.2,0.6-0.1c0.1,0.1,0.6,1.4-0.7,2.3c-0.3,0.1-0.5,0.2-0.4,0.2
	c0,0,0.3-0.2,0.3,0c0,0.2-0.1,1.8-1.1,2.1c-1,0.3-3.3,0.3-4.7,0C8.3,18.4,8,18.2,6.8,18c-0.1,0-0.7-0.1-1.1-0.1
	c-0.5,0-1,0.2-1.2,0.2c-0.1,0-1.2,0-1.7-0.2c-0.5-0.2-1.3-1.5-1.5-2C1.2,15.4,1,14.4,1,13.8c0-0.7,0.4-1.6,0.6-2
	c0.3-0.4,1.8-0.9,1.9-0.9c0.1,0,1-0.3,1.1-0.4c0.1-0.1,0.8-0.4,1-1.1C5.9,8.7,6.2,8,6.5,7.7C6.8,7.4,9,5.6,9.6,4.9
	c0.6-0.7,1.7-1.9,2.4-3.5c0.4-0.6,0.8-0.1,1,0.2c0.2,0.4,0.3,1.6-0.2,3c-0.6,1.5-1.2,1.5-1.2,2.7c0,0.6,0.2,1,0.6,1
	c0.3,0,1.6,0.4,2.1,0.3c0.5-0.1,0.8-0.2,1.3-0.2c0.5,0,1.5,0.6,1.5,1.3C17,10.6,16.4,11.1,16.1,11.2z"/>
</svg>
