<?xml version="1.0" encoding="utf-8"?>
<!-- Generator: Adobe Illustrator 18.1.1, SVG Export Plug-In . SVG Version: 6.00 Build 0)  -->
<svg version="1.1" id="Layer_1" xmlns="http://www.w3.org/2000/svg" xmlns:xlink="http://www.w3.org/1999/xlink" x="0px" y="0px"
	 viewBox="0 0 20 21" enable-background="new 0 0 20 21" xml:space="preserve">
<path d="M19.6,18.9l-4.8-4.8c1.3-1.5,2.1-3.5,2.1-5.6C17,3.8,13.2,0,8.5,0C3.8,0,0,3.8,0,8.5C0,13.2,3.8,17,8.5,17
	c1.8,0,3.5-0.6,4.9-1.6L13,15.8l4.8,4.8c0.2,0.2,0.6,0.4,0.9,0.4c0.3,0,0.6-0.1,0.9-0.4C20.1,20.2,20.1,19.4,19.6,18.9z M1,8.5
	C1,4.4,4.4,1,8.5,1S16,4.4,16,8.5S12.6,16,8.5,16S1,12.6,1,8.5z"/>
</svg>
