<?xml version="1.0" encoding="utf-8"?>
<!-- Generator: Adobe Illustrator 18.1.1, SVG Export Plug-In . SVG Version: 6.00 Build 0)  -->
<svg version="1.1" id="Layer_1" xmlns="http://www.w3.org/2000/svg" xmlns:xlink="http://www.w3.org/1999/xlink" x="0px" y="0px"
	 viewBox="0 0 24 16" enable-background="new 0 0 24 16" xml:space="preserve">
<rect y="3.4" fill="#FFFFFF" width="24" height="2.9"/>
<rect y="9.7" fill="#FFFFFF" width="24" height="2.9"/>
<g>
	<rect y="6.3" fill="#ED5565" width="24" height="3.4"/>
	<path fill="#ED5565" d="M0,13.8C0,15,1,16,2.2,16h19.6c1.2,0,2.2-1,2.2-2.2v-1.2H0V13.8z"/>
	<path fill="#ED5565" d="M21.8,0H2.2C1,0,0,1,0,2.2v1.2h24V2.2C24,1,23,0,21.8,0z"/>
</g>
<g>
	<path fill="#4A89DC" d="M2.2,0C1,0,0,1,0,2.2v7.5h10.3V0H2.2z"/>
	<path fill="#FFFFFF" d="M3.6,7.7C3.4,7.8,3.2,7.7,3.3,7.4l0.3-1.2c0.1-0.3-0.1-0.8-0.3-1L2.4,4.5C2.1,4.3,2.2,4.1,2.5,4.1l1.2,0
		c0.3,0,0.7-0.3,0.8-0.6l0.4-1.3c0.1-0.3,0.3-0.3,0.4,0l0.5,1.3C5.8,3.8,6.2,4,6.5,4l1.2,0c0.3,0,0.4,0.2,0.1,0.4L7,5.3
		c-0.2,0.2-0.4,0.6-0.3,1l0.3,1c0.1,0.3-0.1,0.4-0.3,0.3l-1-0.6c-0.3-0.2-0.7-0.2-1,0L3.6,7.7z"/>
</g>
</svg>
