<?xml version="1.0" encoding="utf-8"?>
<!-- Generator: Adobe Illustrator 18.1.1, SVG Export Plug-In . SVG Version: 6.00 Build 0)  -->
<svg version="1.1" id="Layer_1" xmlns="http://www.w3.org/2000/svg" xmlns:xlink="http://www.w3.org/1999/xlink" x="0px" y="0px"
	 viewBox="0 0 5.8 5.8" enable-background="new 0 0 5.8 5.8" xml:space="preserve">
<path fill-rule="evenodd" clip-rule="evenodd" d="M5.6,0.9l-2,2l2,2l0,0C5.7,5,5.8,5.1,5.8,5.3c0,0.3-0.2,0.5-0.5,0.5
	C5.1,5.8,5,5.7,4.9,5.6l0,0l-2-2l-2,2l0,0C0.8,5.7,0.6,5.8,0.5,5.8C0.2,5.8,0,5.5,0,5.3C0,5.1,0.1,5,0.1,4.9l0,0l2-2l-2-2l0,0
	C0.1,0.8,0,0.6,0,0.5C0,0.2,0.2,0,0.5,0c0.1,0,0.3,0.1,0.4,0.1l0,0l2,2l2-2l0,0C5,0.1,5.1,0,5.3,0c0.3,0,0.5,0.2,0.5,0.5
	C5.8,0.6,5.7,0.8,5.6,0.9L5.6,0.9z"/>
</svg>
